<svg viewBox="0 0 17 51" xmlns="http://www.w3.org/2000/svg"><path fill="#EAEAEA" d="m6.131 5.503-4.73.513a.45.45 0 0 0-.379.302c-.057.17 0 .346.126.457 1.406 1.256 3.52 3.137 3.52 3.137-.002 0-.58 2.735-.965 4.56a.438.438 0 0 0 .176.445.454.454 0 0 0 .483.025c1.656-.921 4.137-2.306 4.137-2.306l4.135 2.307c.15.08.34.079.486-.026a.435.435 0 0 0 .175-.443l-.962-4.562 3.52-3.134a.437.437 0 0 0 .125-.46.446.446 0 0 0-.377-.3 5056.73 5056.73 0 0 0-4.732-.515l-1.96-4.245A.455.455 0 0 0 8.498 1a.448.448 0 0 0-.407.258l-1.96 4.245Z"/><path fill="#4F4E66" d="m6.131 5.181-4.73.477a.445.445 0 0 0-.379.28.38.38 0 0 0 .126.425 3515.38 3515.38 0 0 0 3.52 2.912c-.002 0-.58 2.54-.965 4.235a.394.394 0 0 0 .176.413.484.484 0 0 0 .483.023c1.656-.855 4.137-2.141 4.137-2.141l4.135 2.142a.49.49 0 0 0 .486-.024.39.39 0 0 0 .175-.412l-.962-4.236 3.52-2.91c.125-.107.181-.27.125-.427a.44.44 0 0 0-.377-.279l-4.732-.478-1.96-3.941a.459.459 0 0 0-.41-.24c-.182 0-.337.1-.407.24-.785 1.576-1.96 3.941-1.96 3.941Z"/><path fill="#EAEAEA" d="m6.131 22.503-4.73.513a.45.45 0 0 0-.379.302c-.057.17 0 .346.126.457 1.406 1.256 3.52 3.137 3.52 3.137-.002 0-.58 2.735-.965 4.56a.438.438 0 0 0 .176.445.454.454 0 0 0 .483.025c1.656-.921 4.137-2.306 4.137-2.306l4.135 2.307c.15.08.34.079.486-.026a.435.435 0 0 0 .175-.443l-.962-4.562 3.52-3.134a.437.437 0 0 0 .125-.46.446.446 0 0 0-.377-.3l-4.732-.515-1.96-4.245a.455.455 0 0 0-.41-.258.448.448 0 0 0-.407.258l-1.96 4.245Z"/><path fill="#F04C01" d="m6.131 22.181-4.73.477a.445.445 0 0 0-.379.28.38.38 0 0 0 .126.425c1.406 1.166 3.52 2.912 3.52 2.912-.002 0-.58 2.54-.965 4.235a.394.394 0 0 0 .176.413.484.484 0 0 0 .483.023c1.656-.855 4.137-2.141 4.137-2.141l4.135 2.142a.49.49 0 0 0 .486-.024.39.39 0 0 0 .175-.412l-.962-4.236 3.52-2.91a.387.387 0 0 0 .125-.427.44.44 0 0 0-.377-.278c-1.893-.193-4.732-.479-4.732-.479s-1.177-2.364-1.96-3.941a.459.459 0 0 0-.41-.24c-.182 0-.337.1-.407.24l-1.96 3.941Z"/><path fill="#EAEAEA" d="m6.131 39.503-4.73.513a.45.45 0 0 0-.379.302c-.057.17 0 .346.126.457 1.406 1.256 3.52 3.137 3.52 3.137-.002 0-.58 2.735-.965 4.56a.438.438 0 0 0 .176.445.454.454 0 0 0 .483.025c1.656-.921 4.137-2.306 4.137-2.306l4.135 2.307c.15.08.34.079.486-.026a.435.435 0 0 0 .175-.443l-.962-4.562 3.52-3.134a.437.437 0 0 0 .125-.46.446.446 0 0 0-.377-.3c-1.893-.208-4.732-.515-4.732-.515l-1.96-4.245a.455.455 0 0 0-.41-.258.448.448 0 0 0-.407.258l-1.96 4.245Z"/><path fill="#F90" d="m6.131 39.181-4.73.477a.445.445 0 0 0-.379.28.38.38 0 0 0 .126.425c1.406 1.166 3.52 2.912 3.52 2.912-.002 0-.58 2.54-.965 4.235a.394.394 0 0 0 .176.413.484.484 0 0 0 .483.023c1.656-.855 4.137-2.141 4.137-2.141l4.135 2.142a.49.49 0 0 0 .486-.024.39.39 0 0 0 .175-.412l-.962-4.236 3.52-2.91a.387.387 0 0 0 .125-.427.44.44 0 0 0-.377-.279l-4.732-.478s-1.177-2.364-1.96-3.941a.459.459 0 0 0-.41-.24c-.182 0-.337.1-.407.24-.785 1.576-1.96 3.941-1.96 3.941Z"/></svg>